<svg width="15" height="15" viewBox="0 0 15 15" fill="none" xmlns="http://www.w3.org/2000/svg">
<path d="M14.9325 11.9544L14.8578 11.7294C14.681 11.2038 14.1014 10.6557 13.569 10.5113L11.5983 9.97291C11.0639 9.82751 10.3015 10.023 9.91053 10.414L9.1973 11.1272C6.60529 10.4268 4.57275 8.39421 3.87329 5.8027L4.58655 5.08944C4.97755 4.69844 5.17302 3.93711 5.02763 3.4027L4.49026 1.43104C4.34487 0.897602 3.79571 0.318012 3.27113 0.143132L3.04617 0.0674963C2.52059 -0.107384 1.77102 0.0694767 1.38005 0.46045L0.313167 1.52831C0.12257 1.7179 0.000754092 2.26018 0.000754092 2.26216C-0.0365607 5.64941 1.29162 8.91288 3.68763 11.3089C6.07776 13.699 9.32899 15.0253 12.7064 14.9968C12.7241 14.9968 13.2821 14.8769 13.4727 14.6873L14.5395 13.6204C14.9305 13.2295 15.1073 12.4799 14.9325 11.9544Z" fill="black"/>
</svg>
