<svg width="51" height="37" viewBox="0 0 51 37" fill="none" xmlns="http://www.w3.org/2000/svg">
<path d="M39.375 7H30.625V0.875C30.625 0.642936 30.5328 0.420376 30.3687 0.256282C30.2046 0.0921874 29.9821 0 29.75 0H5.25C5.01794 0 4.79538 0.0921874 4.63128 0.256282C4.46719 0.420376 4.375 0.642936 4.375 0.875C4.375 1.10706 4.46719 1.32962 4.63128 1.49372C4.79538 1.65781 5.01794 1.75 5.25 1.75H9.625V7H0.875C0.642936 7 0.420376 7.09219 0.256282 7.25628C0.0921872 7.42038 0 7.64294 0 7.875V14.875C0 15.1071 0.0921872 15.3296 0.256282 15.4937C0.420376 15.6578 0.642936 15.75 0.875 15.75H9.625V21H0.875C0.642936 21 0.420376 21.0922 0.256282 21.2563C0.0921872 21.4204 0 21.6429 0 21.875V28.875C0 29.1071 0.0921872 29.3296 0.256282 29.4937C0.420376 29.6578 0.642936 29.75 0.875 29.75H9.625V35H5.145C4.91294 35 4.69038 35.0922 4.52628 35.2563C4.36219 35.4204 4.27 35.6429 4.27 35.875C4.27 36.1071 4.36219 36.3296 4.52628 36.4937C4.69038 36.6578 4.91294 36.75 5.145 36.75H29.75C29.9821 36.75 30.2046 36.6578 30.3687 36.4937C30.5328 36.3296 30.625 36.1071 30.625 35.875V29.75H39.375C39.6071 29.75 39.8296 29.6578 39.9937 29.4937C40.1578 29.3296 40.25 29.1071 40.25 28.875V21.875C40.25 21.6429 40.1578 21.4204 39.9937 21.2563C39.8296 21.0922 39.6071 21 39.375 21H30.625V15.75H39.375C39.6071 15.75 39.8296 15.6578 39.9937 15.4937C40.1578 15.3296 40.25 15.1071 40.25 14.875V7.875C40.25 7.64294 40.1578 7.42038 39.9937 7.25628C39.8296 7.09219 39.6071 7 39.375 7ZM11.375 1.75H28.875V7H11.375V1.75ZM1.75 14V8.75H19.25V14H1.75ZM1.75 28V22.75H19.25V28H1.75ZM28.875 35H11.375V29.75H28.875V35ZM38.5 28H21V22.75H38.5V28ZM28.875 21H11.375V15.75H28.875V21ZM38.5 14H21V8.75H38.5V14Z" fill="white"/>
<path d="M2.625 35H0.875C0.642936 35 0.420376 35.0922 0.256282 35.2563C0.0921872 35.4204 0 35.6429 0 35.875C0 36.1071 0.0921872 36.3296 0.256282 36.4937C0.420376 36.6578 0.642936 36.75 0.875 36.75H2.625C2.85706 36.75 3.07962 36.6578 3.24372 36.4937C3.40781 36.3296 3.5 36.1071 3.5 35.875C3.5 35.6429 3.40781 35.4204 3.24372 35.2563C3.07962 35.0922 2.85706 35 2.625 35Z" fill="white"/>
<path d="M0.875 1.75H2.695C2.92706 1.75 3.14962 1.65781 3.31372 1.49372C3.47781 1.32962 3.57 1.10706 3.57 0.875C3.57 0.642936 3.47781 0.420376 3.31372 0.256282C3.14962 0.0921874 2.92706 0 2.695 0H0.875C0.642936 0 0.420376 0.0921874 0.256281 0.256282C0.0921872 0.420376 0 0.642936 0 0.875C0 1.10706 0.0921872 1.32962 0.256281 1.49372C0.420376 1.65781 0.642936 1.75 0.875 1.75Z" fill="white"/>
<path d="M49.875 8.75C50.1071 8.75 50.3296 8.65781 50.4937 8.49372C50.6578 8.32963 50.75 8.10706 50.75 7.875V0.875C50.75 0.642936 50.6578 0.420376 50.4937 0.256282C50.3296 0.0921874 50.1071 0 49.875 0H42C41.7679 0 41.5454 0.0921874 41.3813 0.256282C41.2172 0.420376 41.125 0.642936 41.125 0.875V7.875C41.125 8.10706 41.2172 8.32963 41.3813 8.49372C41.5454 8.65781 41.7679 8.75 42 8.75H47.25V14H42C41.7679 14 41.5454 14.0922 41.3813 14.2563C41.2172 14.4204 41.125 14.6429 41.125 14.875V21.875C41.125 22.1071 41.2172 22.3296 41.3813 22.4937C41.5454 22.6578 41.7679 22.75 42 22.75H47.25V28H42C41.7679 28 41.5454 28.0922 41.3813 28.2563C41.2172 28.4204 41.125 28.6429 41.125 28.875V35.875C41.125 36.1071 41.2172 36.3296 41.3813 36.4937C41.5454 36.6578 41.7679 36.75 42 36.75H49.875C50.1071 36.75 50.3296 36.6578 50.4937 36.4937C50.6578 36.3296 50.75 36.1071 50.75 35.875V28.875C50.75 28.6429 50.6578 28.4204 50.4937 28.2563C50.3296 28.0922 50.1071 28 49.875 28H49V22.75H49.875C50.1071 22.75 50.3296 22.6578 50.4937 22.4937C50.6578 22.3296 50.75 22.1071 50.75 21.875V14.875C50.75 14.6429 50.6578 14.4204 50.4937 14.2563C50.3296 14.0922 50.1071 14 49.875 14H49V8.75H49.875ZM49 35H42.875V29.75H49V35ZM48.125 21H42.875V15.75H49V21H48.125ZM42.875 1.75H49V7H42.875V1.75Z" fill="white"/>
</svg>
